Motion_pl14
version=1
nRows=5
nColumns=43
inDegrees=yes
endheader
time	pelvis_tilt	pelvis_list	pelvis_rotation	pelvis_tx	pelvis_ty	pelvis_tz	hip_flexion_r	hip_adduction_r	hip_rotation_r	knee_angle_r	ankle_angle_r	subtalar_angle_r	mtp_angle_r	hip_flexion_l	hip_adduction_l	hip_rotation_l	knee_angle_l	ankle_angle_l	subtalar_angle_l	mtp_angle_l	lumbar_extension	lumbar_bending	lumbar_rotation	neck_flexion	neck_lateral_bending	neck_rotation	arm_flex_r	arm_add_r	arm_rot_r	elbow_flex_r	pro_sup_r	wrist_flex_r	wrist_dev_r	hand_finger_flex_r	arm_flex_l	arm_add_l	arm_rot_l	elbow_flex_l	pro_sup_l	wrist_flex_l	wrist_dev_l	hand_finger_flex_l
      0.66500000	     -0.46846788	     -2.18076103	     85.42494434	      0.05038186	      1.76303595	      1.88060892	     82.22326893	     -3.50409589	      5.62577631	   -150.12274236	     23.93703674	      5.86184169	      7.74618324	     78.25778964	     -7.75485515	     11.83892641	   -150.21028005	     22.18189330	     22.46137570	     16.73996268	    -61.88306986	     -5.00655969	      1.06439957	     39.38621527	      2.60868544	     -3.40283516	     60.95655500	    -29.13096513	      7.21408162	     75.83431345	     91.38045250	      0.10466428	     -3.16917702	    -27.15816237	     74.04997550	    -19.01861915	     20.67054587	     56.49217719	    105.71540182	     -6.81847228	      4.51899044	      1.83024702
      0.66750000	     -0.40830207	     -2.29247470	     85.44282422	      0.05028680	      1.76297636	      1.87899427	     82.09129216	     -3.53122997	      5.60164394	   -150.12900655	     23.93834385	      5.90224289	      7.91667013	     78.15646619	     -7.70909562	     11.91980397	   -150.22847776	     22.15733076	     22.47894994	     16.94314913	    -61.70241320	     -4.91354368	      1.13514666	     39.25477032	      2.58757887	     -3.37692693	     61.97771176	    -29.39486406	      7.57053322	     76.14324452	     91.71980041	      0.00201385	     -3.15537072	    -27.12235056	     75.01595580	    -19.08916513	     21.18880742	     56.45683209	    105.78375750	     -6.95200318	      4.48098945	      1.93931029
      0.67000000	     -0.36489016	     -2.45582662	     85.45373295	      0.05024716	      1.76294171	      1.87738982	     82.00529901	     -3.53989743	      5.56351162	   -150.11547602	     23.95716899	      5.91897901	      8.07400130	     78.10557506	     -7.68995143	     11.96500818	   -150.23781028	     22.13131023	     22.46930878	     17.13513930	    -61.48868180	     -4.83978172	      1.17816212	     39.30674797	      2.58655750	     -3.36076697	     63.02940459	    -29.56245650	      7.87223951	     76.39487467	     91.98518736	     -0.08911070	     -3.13483755	    -27.07352480	     75.96139614	    -19.08724864	     21.52700051	     56.37498308	    105.80113975	     -7.11752279	      4.39794016	      2.02417985
      0.67250000	     -0.34646325	     -2.67279860	     85.45050624	      0.05026723	      1.76283008	      1.87574879	     81.99219306	     -3.55669105	      5.53560264	   -150.11044390	     23.97627901	      5.93285955	      8.14061899	     78.09502521	     -7.69719749	     11.97375642	   -150.24229625	     22.11620343	     22.44393857	     17.21535105	    -61.22053259	     -4.79702262	      1.18656421	     39.42619561	      2.60769813	     -3.36225645	     64.03027839	    -29.57433602	      7.99953106	     76.62618523	     92.11562905	     -0.12145401	     -3.14282564	    -27.04472363	     76.84388225	    -19.02316399	     21.62632970	     56.30603029	    105.83311820	     -7.18909081	      4.35893880	      2.05069617
      0.67500000	     -0.30647713	     -2.86932862	     85.46129777	      0.05022381	      1.76273841	      1.87413180	     81.92595079	     -3.56447462	      5.49328384	   -150.09355156	     24.03486523	      5.94639273	      8.22899872	     78.08112380	     -7.69619271	     11.97747169	   -150.25572232	     22.11457517	     22.35615053	     17.31884141	    -60.97283157	     -4.72519467	      1.22505809	     39.47732044	      2.62273521	     -3.35506346	     65.11859519	    -29.74960785	      8.33323173	     76.85754143	     92.35048244	     -0.14357695	     -3.10324082	    -26.99797222	     77.79765444	    -19.02324881	     21.93296528	     56.22635560	    105.91848926	     -7.22287222	      4.27426514	      2.09678285
